# xmcd
#
# Track frame offsets:
#	150
#	17080
#	29272
#	45256
#	57122
#	67546
#	81237
#	97043
#	110499
#	120167
#	130720
#	141822
#	153081
#	169367
#	181722
#	192668
#
# Disc length: 2834 seconds
#
# Revision: 0
# Processed by: cddbd v1.5PL3 Copyright (c) Steve Scherf et al.
# Submitted via: dBpowerAMP V4.0
#
DISCID=c30b1010
DTITLE=Eric Clapaton - STORMY MONDAY BLUES
DYEAR=1999
DGENRE=Blues
TTITLE0=Stormy Monday Blues
TTITLE1=Stroll On
TTITLE2=Big Boss Man
TTITLE3=Steeled Blues
TTITLE4=Putty in Your Hands
TTITLE5=Jeff`s Blues
TTITLE6=Train Kept a Rollin
TTITLE7=`still I`m Sad
TTITLE8=Tribute to Elmore
TTITLE9=West Coast Idea
TTITLE10=Heart Full of Soul
TTITLE11=Miles Road
TTITLE12=Little Red Rooster
TTITLE13=Highway 49
TTITLE14=Shapes of Things
TTITLE15=Wang - Dang - Doodle
EXTD=1999 Digimode Entertaiment Ltd, UK.MADE IN E.C.\nLT5126
EXTT0=
EXTT1=
EXTT2=
EXTT3=
EXTT4=
EXTT5=
EXTT6=
EXTT7=
EXTT8=
EXTT9=
EXTT10=
EXTT11=
EXTT12=
EXTT13=
EXTT14=
EXTT15=
PLAYORDER=
